<svg width="18" height="16" viewBox="0 0 18 16" fill="none" xmlns="http://www.w3.org/2000/svg">
<path d="M0.292893 7.29289C-0.0976311 7.68342 -0.0976311 8.31658 0.292893 8.70711L6.65685 15.0711C7.04738 15.4616 7.68054 15.4616 8.07107 15.0711C8.46159 14.6805 8.46159 14.0474 8.07107 13.6569L2.41421 8L8.07107 2.34315C8.46159 1.95262 8.46159 1.31946 8.07107 0.928932C7.68054 0.538408 7.04738 0.538408 6.65685 0.928932L0.292893 7.29289ZM2 7H1L1 9H2L2 7Z" fill="white"/>
<path d="M9.29289 7.29289C8.90237 7.68342 8.90237 8.31658 9.29289 8.70711L15.6569 15.0711C16.0474 15.4616 16.6805 15.4616 17.0711 15.0711C17.4616 14.6805 17.4616 14.0474 17.0711 13.6569L11.4142 8L17.0711 2.34315C17.4616 1.95262 17.4616 1.31946 17.0711 0.928932C16.6805 0.538408 16.0474 0.538408 15.6569 0.928932L9.29289 7.29289ZM11 7H10V9H11V7Z" fill="white"/>
</svg>
