<svg xmlns="http://www.w3.org/2000/svg" width="27" height="26" viewBox="0 0 27 26" fill="none">
<path d="M16.25 7.38636L15.6951 8.42991C15.954 8.5675 16.2548 8.60396 16.539 8.53222C16.8233 8.46047 17.0707 8.28564 17.2333 8.04168L16.25 7.38636ZM19.2045 2.95455L20.1878 3.61045C20.3435 3.37701 20.411 3.0958 20.3783 2.81714C20.3456 2.53848 20.2148 2.28053 20.0094 2.08945L19.2045 2.95455ZM24.8182 11.2273L25.9976 11.1487C25.9777 10.8495 25.8448 10.569 25.6257 10.3642C25.4067 10.1593 25.1181 10.0454 24.8182 10.0455V11.2273ZM13 11.2273V10.0455C12.6866 10.0455 12.386 10.17 12.1643 10.3916C11.9427 10.6132 11.8182 10.9138 11.8182 11.2273H13ZM13 15.3636H11.8182C11.8182 15.6771 11.9427 15.9777 12.1643 16.1993C12.386 16.4209 12.6866 16.5455 13 16.5455V15.3636ZM18.6136 15.3636H19.7955C19.7955 15.0502 19.6709 14.7496 19.4493 14.528C19.2277 14.3063 18.9271 14.1818 18.6136 14.1818V15.3636ZM17.2333 8.04168L20.1878 3.61045L18.2213 2.29864L15.2667 6.73045L17.2333 8.04168ZM19.2045 2.95455C19.4743 2.66758 19.7422 2.37882 20.0082 2.08827L20.0076 2.08709C20.005 2.08457 20.0022 2.0822 19.9993 2.08C19.9836 2.06528 19.9675 2.05109 19.9509 2.03745C19.7994 1.91181 19.6407 1.79501 19.4758 1.68764C19.0365 1.40629 18.5716 1.16728 18.0871 0.973818C16.8515 0.470364 15.0002 0 12.4091 0V2.36364C14.7077 2.36364 16.2547 2.77964 17.1949 3.16255C17.5402 3.29939 17.8718 3.46855 18.1852 3.66777C18.2638 3.71867 18.3397 3.7735 18.4127 3.83205L18.4115 3.83086L18.4068 3.82673C18.4056 3.82556 18.4044 3.82438 18.4033 3.82318L18.4015 3.82141C18.6674 3.53077 18.935 3.24181 19.2045 2.95455ZM12.4091 0C9.63536 0 6.55318 1.2415 4.16709 3.40955C1.75973 5.59591 0 8.78091 0 12.7045H2.36364C2.36364 9.53668 3.77236 6.96091 5.75605 5.15864C7.761 3.33864 10.2919 2.36364 12.4091 2.36364V0ZM0 12.7045C0 20.8 6.49586 26 13 26V23.6364C7.68595 23.6364 2.36364 19.3818 2.36364 12.7045H0ZM24.8182 11.2273V10.0455H13V12.4091H24.8182V11.2273ZM11.8182 11.2273V15.3636H14.1818V11.2273H11.8182ZM13 16.5455H18.6136V14.1818H13V16.5455ZM17.4318 15.3636C17.4318 15.7761 17.1234 16.5059 16.2979 17.1836C15.5102 17.8301 14.3691 18.3182 13 18.3182V20.6818C14.94 20.6818 16.6057 19.9887 17.7976 19.0101C18.9516 18.0635 19.7955 16.7239 19.7955 15.3636H17.4318ZM13 18.3182C9.68086 18.3182 7.68182 15.4795 7.68182 12.7045H5.31818C5.31818 16.4296 8.04641 20.6818 13 20.6818V18.3182ZM7.68182 12.7045C7.68182 10.1424 10.0715 7.68182 13 7.68182V5.31818C8.83764 5.31818 5.31818 8.76673 5.31818 12.7045H7.68182ZM13 7.68182C14.1818 7.68182 15.1539 8.14214 15.6951 8.42991L16.8049 6.34282C16.1643 6.00245 14.7721 5.31818 13 5.31818V7.68182ZM13 26C16.3516 26 20.3627 24.6338 23.0927 21.1102L21.2255 19.6625C19.0202 22.5071 15.7595 23.6364 13 23.6364V26ZM23.0927 21.1102C24.8879 18.7945 26.315 15.9161 25.9976 11.1487L23.6387 11.3059C23.9123 15.4026 22.7275 17.7237 21.2255 19.6625L23.0927 21.1102Z" fill="white"/>
</svg>
