<svg xmlns="http://www.w3.org/2000/svg" width="15" height="26" viewBox="0 0 15 26" fill="none">
<path fill-rule="evenodd" clip-rule="evenodd" d="M5.57611 2.05067C6.87138 0.737862 8.62821 0.000219665 10.4601 0H14.0126C14.2744 0 14.5254 0.105357 14.7104 0.292893C14.8955 0.480429 14.9995 0.734784 14.9995 1V5.8C14.9995 6.06522 14.8955 6.31957 14.7104 6.50711C14.5254 6.69464 14.2744 6.8 14.0126 6.8H10.4601C10.4342 6.8 10.4086 6.80517 10.3846 6.81522C10.3607 6.82528 10.3389 6.84001 10.3206 6.85858C10.3023 6.87715 10.2877 6.8992 10.2778 6.92346C10.2679 6.94773 10.2628 6.97374 10.2628 7V9.6H14.0126C14.1627 9.59992 14.3107 9.63449 14.4456 9.70111C14.5804 9.76772 14.6985 9.86461 14.7909 9.98442C14.8832 10.1042 14.9474 10.2438 14.9785 10.3925C15.0097 10.5412 15.0069 10.6952 14.9705 10.8427L13.7863 15.6427C13.7329 15.8591 13.6096 16.0512 13.4361 16.1884C13.2625 16.3256 13.0486 16.4001 12.8285 16.4H10.2628V25C10.2628 25.2652 10.1588 25.5196 9.97375 25.7071C9.78869 25.8946 9.53769 26 9.27598 26H4.53931C4.27759 26 4.02659 25.8946 3.84153 25.7071C3.65647 25.5196 3.5525 25.2652 3.5525 25V16.4H0.986806C0.725089 16.4 0.474091 16.2946 0.289029 16.1071C0.103967 15.9196 0 15.6652 0 15.4V10.6C0 10.4687 0.0255244 10.3386 0.075116 10.2173C0.124708 10.096 0.197395 9.98575 0.289029 9.89289C0.380662 9.80004 0.489447 9.72638 0.609172 9.67612C0.728896 9.62587 0.857217 9.6 0.986806 9.6H3.5525V7C3.55272 5.14357 4.28063 3.36325 5.57611 2.05067ZM10.4601 2C9.15156 2 7.89657 2.52678 6.97126 3.46447C6.04595 4.40215 5.52611 5.67392 5.52611 7V10.6C5.52611 10.8652 5.42215 11.1196 5.23709 11.3071C5.05202 11.4946 4.80102 11.6 4.53931 11.6H1.97361V14.4H4.53931C4.80102 14.4 5.05202 14.5054 5.23709 14.6929C5.42215 14.8804 5.52611 15.1348 5.52611 15.4V24H8.28917V15.4C8.28917 15.1348 8.39314 14.8804 8.5782 14.6929C8.76326 14.5054 9.01426 14.4 9.27598 14.4H12.0575L12.7482 11.6H9.27598C9.01426 11.6 8.76326 11.4946 8.5782 11.3071C8.39314 11.1196 8.28917 10.8652 8.28917 10.6V7C8.28917 6.41652 8.5179 5.85695 8.92503 5.44437C9.33217 5.03179 9.88437 4.8 10.4601 4.8H13.0258V2H10.4601Z" fill="white"/>
</svg>