<svg xmlns="http://www.w3.org/2000/svg" width="43" height="43" viewBox="0 0 53 53" fill="none">
  <circle cx="26.5" cy="26.5" r="26.5" fill="#D9D9D9"/>
  <path d="M15.1661 15.9455H19.5692L22.5046 13.0464H31.3107L34.2461 15.9455H38.6492C39.4277 15.9455 40.1743 16.251 40.7248 16.7947C41.2753 17.3384 41.5846 18.0758 41.5846 18.8447V36.2395C41.5846 37.0085 41.2753 37.7459 40.7248 38.2896C40.1743 38.8333 39.4277 39.1387 38.6492 39.1387H15.1661C14.3876 39.1387 13.641 38.8333 13.0905 38.2896C12.54 37.7459 12.2307 37.0085 12.2307 36.2395V18.8447C12.2307 18.0758 12.54 17.3384 13.0905 16.7947C13.641 16.251 14.3876 15.9455 15.1661 15.9455ZM26.9076 20.2943C24.9614 20.2943 23.0948 21.0579 21.7186 22.4171C20.3423 23.7763 19.5692 25.6199 19.5692 27.5421C19.5692 29.4644 20.3423 31.3079 21.7186 32.6671C23.0948 34.0264 24.9614 34.79 26.9076 34.79C28.8539 34.79 30.7205 34.0264 32.0967 32.6671C33.4729 31.3079 34.2461 29.4644 34.2461 27.5421C34.2461 25.6199 33.4729 23.7763 32.0967 22.4171C30.7205 21.0579 28.8539 20.2943 26.9076 20.2943ZM26.9076 23.1934C28.0754 23.1934 29.1953 23.6516 30.0211 24.4671C30.8468 25.2826 31.3107 26.3888 31.3107 27.5421C31.3107 28.6955 30.8468 29.8016 30.0211 30.6171C29.1953 31.4327 28.0754 31.8908 26.9076 31.8908C25.7399 31.8908 24.6199 31.4327 23.7942 30.6171C22.9685 29.8016 22.5046 28.6955 22.5046 27.5421C22.5046 26.3888 22.9685 25.2826 23.7942 24.4671C24.6199 23.6516 25.7399 23.1934 26.9076 23.1934Z" fill="#545454"/>
</svg>