<svg xmlns="http://www.w3.org/2000/svg" width="18" height="17" viewBox="0 0 18 17" fill="none">
<g clip-path="url(#clip0_908_11407)">
<path d="M0 0.585985C0.165495 0.142317 0.500291 -0.0126654 0.971572 0.00121363C1.6131 0.0201817 2.25559 0.00583998 2.8976 0.00583998C3.42166 0.00583998 3.64803 0.166837 3.81495 0.653992C4.02468 1.26606 4.23487 1.87813 4.44602 2.49019C4.57633 2.86817 4.71662 2.96671 5.12417 2.96671C9.11271 2.96671 13.1012 2.96671 17.0903 2.96763C17.2087 2.96763 17.3314 2.96486 17.4441 2.99261C17.8825 3.10041 18.1041 3.52927 17.9534 3.97618C17.6985 4.73166 17.4388 5.48529 17.1801 6.23939C16.7807 7.40338 16.3802 8.56691 15.9803 9.73044C15.8234 10.1871 15.5913 10.3518 15.0996 10.3518C12.4783 10.3518 9.85649 10.3518 7.23519 10.3518C6.7758 10.3518 6.66357 10.436 6.55133 10.8644C6.51186 11.0152 6.46811 11.1651 6.43339 11.3168C6.37157 11.5898 6.52803 11.798 6.81527 11.828C6.88565 11.8354 6.95794 11.8322 7.02927 11.8322C9.96587 11.8322 12.9025 11.8322 15.8386 11.834C15.9736 11.834 16.1158 11.8401 16.2418 11.8808C16.5881 11.9918 16.7821 12.3309 16.7279 12.6922C16.6784 13.0216 16.3812 13.2807 16.0283 13.3011C15.9808 13.3038 15.9332 13.3038 15.8857 13.3038C12.8958 13.3038 9.90547 13.3048 6.91561 13.3038C5.92597 13.3034 5.14843 12.6992 4.94108 11.7762C4.87498 11.4829 4.89305 11.191 4.97057 10.9023C5.32867 9.56713 5.30394 9.66428 4.86357 8.38694C4.12122 6.23476 3.38505 4.08073 2.64555 1.92763C2.53046 1.59175 2.37971 1.48766 2.01495 1.4872C1.65828 1.4872 1.30114 1.47286 0.944941 1.49044C0.475086 1.51357 0.155033 1.33684 0.000475561 0.898264V0.586447L0 0.585985Z" fill="currentColor" fill-opacity="1"/>
<path d="M6.09147 14.0493C6.93464 14.0512 7.60471 14.7039 7.60471 15.5228C7.60471 16.3389 6.92941 16.9982 6.09147 17C5.2483 17.0014 4.56207 16.3334 4.56587 15.5145C4.56968 14.7016 5.25021 14.0479 6.09147 14.0493Z" fill="currentColor" fill-opacity="1"/>
<path d="M15.2218 14.0493C16.0649 14.0507 16.735 14.7035 16.7355 15.5228C16.7355 16.3394 16.0602 16.9986 15.2227 17C14.3795 17.0014 13.6933 16.3338 13.6971 15.5145C13.7009 14.7016 14.3814 14.0475 15.2222 14.0493H15.2218Z" fill="currentColor" fill-opacity="1"/>
</g>
<defs>
<clipPath id="clip0_908_11407">
<rect width="18" height="17" fill="white"/>
</clipPath>
</defs>
</svg>