<svg xmlns="http://www.w3.org/2000/svg" width="38" height="30" viewBox="0 0 39 36" fill="none">
  <path d="M10.5002 17.6604C10.5002 17.2346 10.6582 16.8262 10.9395 16.5251C11.2208 16.224 11.6024 16.0549 12.0002 16.0549H25.5005V5.61921C25.5005 2.40823 22.3326 0 19.5003 0H5.25009C3.85814 0.00159367 2.52362 0.594128 1.53936 1.64759C0.555101 2.70105 0.00148899 4.12939 0 5.61921V29.7015C0.00148899 31.1914 0.555101 32.6197 1.53936 33.6732C2.52362 34.7266 3.85814 35.3192 5.25009 35.3208H20.2504C21.6423 35.3192 22.9768 34.7266 23.9611 33.6732C24.9454 32.6197 25.499 31.1914 25.5005 29.7015V19.2659H12.0002C11.6024 19.2659 11.2208 19.0967 10.9395 18.7956C10.6582 18.4945 10.5002 18.0862 10.5002 17.6604ZM38.561 16.5255L31.0609 8.49805C30.7773 8.20968 30.3996 8.05128 30.0085 8.05664C29.6173 8.062 29.2436 8.23069 28.967 8.52675C28.6904 8.8228 28.5328 9.22279 28.5278 9.64145C28.5228 10.0601 28.6708 10.4643 28.9402 10.7678L33.879 16.0549H25.5005V19.2659H33.879L28.9402 24.5529C28.795 24.7005 28.679 24.8778 28.5988 25.0741C28.5187 25.2705 28.476 25.4821 28.4735 25.6963C28.4709 25.9106 28.5085 26.1233 28.5839 26.3218C28.6593 26.5203 28.7711 26.7006 28.9127 26.8521C29.0543 27.0037 29.2228 27.1233 29.4082 27.2041C29.5937 27.2848 29.7924 27.325 29.9926 27.3222C30.1928 27.3195 30.3904 27.2739 30.5739 27.1881C30.7574 27.1023 30.923 26.9781 31.0609 26.8227L38.561 18.7953C38.8421 18.4942 39 18.086 39 17.6604C39 17.2348 38.8421 16.8266 38.561 16.5255Z" fill="currentColor" />
</svg>