<svg width="36" height="35" viewBox="0 0 36 35" fill="none" xmlns="http://www.w3.org/2000/svg">
<rect width="36" height="35" rx="6" fill="#15CCA3"/>
<g clip-path="url(#clip0_4901_1808)">
<path d="M28.5625 26.1251H8.43751C7.64357 26.1251 7 25.4815 7 24.6876C7 23.8937 7.64357 23.2501 8.43751 23.2501H28.5625C29.3564 23.2501 30 23.8937 30 24.6876C30 25.4815 29.3564 26.1251 28.5625 26.1251Z" fill="white"/>
<path d="M28.5625 18.9376H8.43751C7.64357 18.9376 7 18.294 7 17.5001C7 16.7062 7.64357 16.0626 8.43751 16.0626H28.5625C29.3564 16.0626 30 16.7062 30 17.5001C30 18.294 29.3564 18.9376 28.5625 18.9376Z" fill="white"/>
<path d="M28.5625 11.75H8.43751C7.64357 11.75 7 11.1065 7 10.3125C7 9.51857 7.64357 8.875 8.43751 8.875H28.5625C29.3564 8.875 30 9.51857 30 10.3125C30 11.1065 29.3564 11.75 28.5625 11.75Z" fill="white"/>
</g>
<defs>
<clipPath id="clip0_4901_1808">
<rect width="23" height="23" fill="white" transform="translate(7 6)"/>
</clipPath>
</defs>
</svg>
