<svg width="165" height="53" viewBox="0 0 165 53" fill="none" xmlns="http://www.w3.org/2000/svg">
<g clip-path="url(#clip0_3676_1801)">
<path d="M59.1836 40.7187L56.3293 35.773L56.3316 35.7707C56.0719 35.3318 55.9202 34.8216 55.9202 34.2746C55.9202 33.7231 56.0742 33.2106 56.3385 32.7694L55.8697 32.5809L55.0423 33.5392L54.8102 33.1371C53.8841 31.5306 51.5652 31.5306 50.6391 33.1371L46.2634 40.7164C45.3372 42.3228 46.4955 44.3291 48.3478 44.3291H48.8672L48.4788 45.6643L48.8074 45.8137C49.313 44.9266 50.2668 44.3291 51.3607 44.3291C51.3768 44.3291 51.3906 44.3314 51.4066 44.3314V44.3291H57.0992C58.9515 44.3291 60.1097 42.3228 59.1836 40.7187Z" fill="#15CCA3"/>
<path d="M40.0149 0H18.6972C15.8245 0 13.1724 1.53287 11.7361 4.01947L1.07726 22.4805C-0.359086 24.9671 -0.359086 28.0306 1.07726 30.5195L11.7361 48.9805C13.1724 51.4671 15.8245 53 18.6972 53H40.0149C42.8876 53 45.5396 51.4671 46.976 48.9805L57.6348 30.5195C59.0711 28.0329 59.0711 24.9694 57.6348 22.4805L46.976 4.01947C45.5396 1.53287 42.8853 0 40.0149 0Z" fill="#15CCA3"/>
<path opacity="0.7" d="M40.7787 25.5319H19.2228L18.1309 25.9956V31.6215L28.3676 35.8078C28.39 35.8172 28.4143 35.8228 28.4367 35.8321C28.9191 36.0303 29.4464 36.1425 29.9998 36.1425C30.5533 36.1425 31.0805 36.0322 31.5629 35.8321C31.5853 35.8246 31.6096 35.819 31.6321 35.8097L41.8725 31.6215V25.9956L40.7787 25.5319Z" fill="white"/>
<path d="M47.7651 23.1984L31.6444 16.344C31.6388 16.3422 31.6332 16.3403 31.6276 16.3384C31.1284 16.1215 30.5787 16 29.9991 16C29.4195 16 28.8698 16.1215 28.3705 16.3384C28.3649 16.3403 28.3593 16.3422 28.3537 16.344L12.2349 23.1984C11.9189 23.333 11.9227 23.7799 12.2405 23.9089L28.3668 30.5034C28.3892 30.5127 28.4135 30.5183 28.436 30.5277C28.9184 30.7259 29.4456 30.8381 29.9991 30.8381C30.5525 30.8381 31.0798 30.7278 31.5621 30.5277C31.5846 30.5202 31.6089 30.5146 31.6313 30.5053L47.7595 23.9108C48.0773 23.7799 48.0811 23.3312 47.7651 23.1984Z" fill="white"/>
</g>
<path d="M72.8945 9.82031C73.9258 9.82031 74.7227 9.01172 74.7227 8.03906C74.7227 7.06641 73.9258 6.25781 72.8945 6.25781C71.8633 6.25781 71.0664 7.06641 71.0664 8.03906C71.0664 9.01172 71.8633 9.82031 72.8945 9.82031ZM71.1836 24H74.6055V11.4375H71.1836V24ZM76.9844 24H80.4062V7.08984H76.9844V24ZM88.4336 24.2578C92.0195 24.2578 93.7539 22.1367 94.1406 20.2852L94.1758 20.1562H91.0352L91.0117 20.2266C90.7656 20.9297 89.9102 21.7031 88.5039 21.7031C86.7578 21.7031 85.668 20.5312 85.6328 18.5273H94.2812V17.4727C94.2812 13.6758 91.9727 11.1797 88.293 11.1797C84.6133 11.1797 82.2578 13.7344 82.2578 17.7305V17.7422C82.2578 21.7617 84.5898 24.2578 88.4336 24.2578ZM88.3516 13.7344C89.7695 13.7344 90.7891 14.6367 91 16.3711H85.668C85.8906 14.6719 86.9453 13.7344 88.3516 13.7344ZM99.7891 24.1992C101.441 24.1992 102.777 23.4141 103.492 22.125H103.562V24H106.984V15.3867C106.984 12.8555 104.887 11.1797 101.641 11.1797C98.3242 11.1797 96.332 12.8438 96.1445 15.1641L96.1328 15.3047H99.2617L99.2852 15.1992C99.4492 14.3906 100.223 13.793 101.5 13.793C102.836 13.793 103.562 14.4844 103.562 15.5977V16.3711L100.457 16.5586C97.3398 16.7578 95.5703 18.0938 95.5703 20.3789V20.4023C95.5703 22.6172 97.2695 24.1992 99.7891 24.1992ZM98.957 20.2266V20.2031C98.957 19.3125 99.6484 18.75 100.973 18.668L103.562 18.5039V19.4062C103.562 20.7188 102.438 21.7031 100.902 21.7031C99.7188 21.7031 98.957 21.1523 98.957 20.2266ZM109.199 24H112.621V16.9688C112.621 15.1406 113.605 14.1328 115.293 14.1328C115.785 14.1328 116.254 14.2031 116.535 14.3203V11.3086C116.277 11.2383 115.926 11.1797 115.551 11.1797C114.086 11.1797 113.066 12.082 112.691 13.6289H112.621V11.4375H109.199V24ZM117.941 24H121.363V16.7812C121.363 15.1406 122.336 14.0156 123.871 14.0156C125.406 14.0156 126.18 14.9531 126.18 16.5938V24H129.602V15.8906C129.602 12.9492 128.031 11.1797 125.266 11.1797C123.367 11.1797 122.078 12.0586 121.434 13.5H121.363V11.4375H117.941V24ZM133.551 9.82031C134.582 9.82031 135.379 9.01172 135.379 8.03906C135.379 7.06641 134.582 6.25781 133.551 6.25781C132.52 6.25781 131.723 7.06641 131.723 8.03906C131.723 9.01172 132.52 9.82031 133.551 9.82031ZM131.84 24H135.262V11.4375H131.84V24ZM137.559 24H140.98V16.7812C140.98 15.1406 141.953 14.0156 143.488 14.0156C145.023 14.0156 145.797 14.9531 145.797 16.5938V24H149.219V15.8906C149.219 12.9492 147.648 11.1797 144.883 11.1797C142.984 11.1797 141.695 12.0586 141.051 13.5H140.98V11.4375H137.559V24ZM157.258 28.3594C161.031 28.3594 163.387 26.4492 163.387 23.6484V11.4375H159.965V13.582H159.895C159.215 12.1172 157.844 11.1797 156.074 11.1797C152.898 11.1797 150.93 13.5586 150.93 17.5664V17.5781C150.93 21.4805 152.875 23.8242 156.016 23.8242C157.832 23.8242 159.238 22.9922 159.895 21.6797H159.965V23.6016C159.965 25.0078 159.027 25.9219 157.258 25.9219C155.828 25.9219 154.914 25.3828 154.645 24.7617L154.609 24.6797H151.281L151.293 24.7852C151.621 26.8008 153.801 28.3594 157.258 28.3594ZM157.199 21.3164C155.488 21.3164 154.41 19.9219 154.41 17.6602V17.6484C154.41 15.3984 155.5 14.0156 157.199 14.0156C158.863 14.0156 159.977 15.4102 159.977 17.6484V17.6602C159.977 19.9102 158.875 21.3164 157.199 21.3164Z" fill="white"/>
<path d="M77.582 45.7696C81.8477 45.7696 84.4023 43.7071 84.4023 40.461V40.4493C84.4023 37.7891 82.8086 36.3477 79.2695 35.6446L77.4766 35.2813C75.5312 34.8946 74.6641 34.2735 74.6641 33.2071V33.1954C74.6641 31.9883 75.7539 31.1563 77.5703 31.1446C79.3164 31.1446 80.5352 31.9532 80.7109 33.2774L80.7227 33.418H84.0625L84.0508 33.1954C83.8867 30.2305 81.4844 28.2735 77.5703 28.2735C73.8203 28.2735 71.125 30.3126 71.125 33.4063V33.418C71.125 35.961 72.8125 37.5547 76.1523 38.2227L77.9336 38.5743C80.0312 39.0079 80.8633 39.5821 80.8633 40.7305V40.7422C80.8633 42.0313 79.6328 42.8868 77.6758 42.8868C75.7422 42.8868 74.3477 42.0665 74.125 40.754L74.1016 40.6251H70.7617L70.7734 40.8126C70.9727 43.9297 73.5625 45.7696 77.582 45.7696ZM92.0195 45.7344C95.3711 45.7344 97.5391 43.6485 97.7031 40.9063V40.836H94.5156L94.5039 40.9415C94.2695 42.2071 93.4141 43.0508 92.043 43.0508C90.3555 43.0508 89.3008 41.6563 89.3008 39.1954V39.1837C89.3008 36.7813 90.3555 35.3399 92.0312 35.3399C93.4492 35.3399 94.2812 36.254 94.4922 37.4493L94.5156 37.5547H97.6914V37.4727C97.5625 34.754 95.3945 32.6563 91.9844 32.6563C88.2227 32.6563 85.8203 35.1524 85.8203 39.1719V39.1837C85.8203 43.2383 88.1875 45.7344 92.0195 45.7344ZM99.4375 45.4766H102.859V38.2813C102.859 36.6407 103.832 35.4922 105.344 35.4922C106.902 35.4922 107.77 36.5352 107.77 38.293V45.4766H111.191V37.5899C111.191 34.5547 109.504 32.6563 106.785 32.6563C104.898 32.6563 103.574 33.5235 102.93 35.0821H102.859V28.5665H99.4375V45.4766ZM119.16 45.7344C122.957 45.7344 125.383 43.2969 125.383 39.1954V39.1719C125.383 35.1055 122.91 32.6563 119.148 32.6563C115.398 32.6563 112.938 35.129 112.938 39.1719V39.1954C112.938 43.2852 115.34 45.7344 119.16 45.7344ZM119.172 43.0508C117.484 43.0508 116.418 41.6563 116.418 39.1954V39.1719C116.418 36.7462 117.496 35.3399 119.148 35.3399C120.812 35.3399 121.902 36.7462 121.902 39.1719V39.1954C121.902 41.6446 120.836 43.0508 119.172 43.0508ZM132.918 45.7344C136.715 45.7344 139.141 43.2969 139.141 39.1954V39.1719C139.141 35.1055 136.668 32.6563 132.906 32.6563C129.156 32.6563 126.695 35.129 126.695 39.1719V39.1954C126.695 43.2852 129.098 45.7344 132.918 45.7344ZM132.93 43.0508C131.242 43.0508 130.176 41.6563 130.176 39.1954V39.1719C130.176 36.7462 131.254 35.3399 132.906 35.3399C134.57 35.3399 135.66 36.7462 135.66 39.1719V39.1954C135.66 41.6446 134.594 43.0508 132.93 43.0508ZM140.992 45.4766H144.414V28.5665H140.992V45.4766Z" fill="white"/>
<defs>
<clipPath id="clip0_3676_1801">
<rect width="59.5084" height="53" fill="white"/>
</clipPath>
</defs>
</svg>
