<svg xmlns="http://www.w3.org/2000/svg" width="8" height="10" viewBox="0 0 8 10" fill="none">
<path d="M3.55 9C3.55 9.24853 3.75147 9.45 4 9.45C4.24853 9.45 4.45 9.24853 4.45 9L3.55 9ZM4.3182 0.681802C4.14246 0.506066 3.85754 0.506066 3.6818 0.681802L0.81802 3.54558C0.642284 3.72132 0.642284 4.00624 0.81802 4.18198C0.993756 4.35772 1.27868 4.35772 1.45442 4.18198L4 1.6364L6.54558 4.18198C6.72132 4.35772 7.00624 4.35772 7.18198 4.18198C7.35772 4.00624 7.35772 3.72132 7.18198 3.54558L4.3182 0.681802ZM4.45 9L4.45 1L3.55 1L3.55 9L4.45 9Z" fill="#69BB3D"/>
</svg>