<svg width="64" height="64" viewBox="0 0 64 64" fill="none" xmlns="http://www.w3.org/2000/svg">
<circle cx="32" cy="32" r="32" fill="#00acc1"/>
<g clip-path="url(#clip0_668_4095)">
<path d="M50 30.7183C49.8884 30.192 49.8069 29.6562 49.6597 29.1393C47.8981 22.9758 40.1534 20.9373 35.6394 25.4804C32.4688 28.6704 29.3741 31.9358 26.2372 35.1597C24.3538 37.0946 21.455 37.3394 19.3203 35.7623C16.8678 33.9507 16.4412 30.4368 18.3903 28.1074C20.375 25.7355 23.8888 25.5501 26.1069 27.6931C26.8578 28.419 27.6266 29.1271 28.3587 29.8163C29.0272 29.1883 29.7856 28.4765 30.5703 27.7392C29.8297 26.9756 29.1547 26.2421 28.4403 25.5501C26.0478 23.2319 23.2119 22.4429 20.0309 23.3948C16.8791 24.3383 14.9487 26.5378 14.1838 29.7551C14.1078 30.0724 14.0609 30.3972 14 30.7183V32.2719C14.0684 32.6278 14.12 32.9875 14.2072 33.3387C14.9956 36.5052 16.9222 38.6633 20.0309 39.5964C23.1416 40.5295 25.9906 39.844 28.3025 37.5513C31.4619 34.4177 34.5209 31.1825 37.6091 27.9765C38.7659 26.776 40.1412 26.1489 41.81 26.2026C44.4491 26.2882 46.7038 28.5282 46.8294 31.1853C46.9597 33.9394 44.9947 36.3696 42.35 36.7274C40.5669 36.9684 39.0528 36.4299 37.7684 35.1748C37.0634 34.4855 36.3313 33.8236 35.6459 33.1815C34.9775 33.8057 34.2172 34.5147 33.4297 35.2491C33.7353 35.5665 33.9866 35.8423 34.2537 36.1013C35.0197 36.8442 35.7256 37.6699 36.5741 38.3036C41.7519 42.1706 49.1666 38.9373 49.9372 32.5073C49.9466 32.4273 49.9784 32.351 50 32.2729C50 31.755 50 31.2371 50 30.7193V30.7183Z" fill="#EAF5EF"/>
</g>
<defs>
<clipPath id="clip0_668_4095">
<rect width="36" height="17" fill="white" transform="matrix(-1 0 0 1 50 23)"/>
</clipPath>
</defs>
</svg>
