<svg xmlns="http://www.w3.org/2000/svg" width="15" height="15" viewBox="0 0 15 15" fill="none">
<path d="M7.49635 15C11.6289 15.0038 14.9919 11.6458 15 7.50709C15.008 3.37108 11.6335 -0.00459641 7.49558 4.69796e-06C3.35647 0.0046058 0 3.36303 0 7.49981C0 11.6347 3.35915 14.9958 7.49635 15ZM14.319 7.84374C14.2173 9.51203 13.6015 10.9468 12.4722 12.1738C12.4166 12.1301 12.3744 12.0936 12.3288 12.0622C11.9096 11.7739 11.494 11.4802 11.0676 11.2033C10.9583 11.1324 10.9287 11.0764 10.9633 10.9529C11.1876 10.1554 11.313 9.34102 11.3697 8.5155C11.3851 8.29273 11.3954 8.0692 11.4085 7.84374H14.319ZM3.57274 7.84067C3.57849 7.86598 3.58271 7.87595 3.58309 7.88592C3.62642 8.94302 3.75182 9.98862 4.04057 11.0097C4.06856 11.109 4.01794 11.1385 3.94853 11.1845C3.52941 11.4637 3.11373 11.7485 2.69806 12.033C2.63709 12.0748 2.58148 12.1251 2.5186 12.1749C1.38929 10.9395 0.774981 9.50436 0.672214 7.84106H3.57274V7.84067ZM2.51438 2.83659C2.5673 2.87876 2.60871 2.91634 2.65434 2.94778C3.0773 3.23995 3.49681 3.53711 3.92706 3.81816C4.03175 3.88641 4.06089 3.93817 4.02791 4.05741C3.81471 4.82618 3.69315 5.61105 3.63218 6.40551C3.613 6.65397 3.60227 6.90282 3.5877 7.15166H0.677198C0.783419 5.48951 1.39466 4.05933 2.514 2.83659H2.51438ZM14.319 7.15626H11.4039C11.3766 6.05008 11.2278 4.96345 10.9414 3.94009C11.479 3.56893 11.9883 3.21733 12.5052 2.86036C13.6061 4.06738 14.217 5.49756 14.319 7.15626ZM4.25684 7.84451H7.16005V10.3011C6.30914 10.3464 5.48776 10.5216 4.68709 10.8394C4.41138 9.85328 4.28714 8.86289 4.25684 7.84451ZM10.7397 7.84221C10.7113 8.86212 10.5855 9.85366 10.3106 10.8398C9.51107 10.5189 8.68931 10.3444 7.84147 10.3015V7.84221H10.7397ZM7.8499 7.15779V4.71576C8.70771 4.67473 9.52373 4.49414 10.3206 4.17934C10.5913 5.16551 10.7155 6.15015 10.7424 7.15779H7.85029H7.8499ZM4.6844 4.18049C5.48891 4.50219 6.30646 4.67741 7.1543 4.72189V7.15358H4.26029C4.29059 6.14517 4.41099 5.16321 4.6844 4.18049ZM7.15622 4.03709C6.61131 4.06815 5.20362 3.74531 4.88994 3.51717C4.93442 3.40022 4.97584 3.28021 5.0253 3.16327C5.33744 2.42517 5.71286 1.7281 6.33944 1.20128C6.57718 1.00151 6.83986 0.844308 7.15622 0.78526V4.03709ZM10.1177 3.53749C9.37724 3.84001 8.62795 4.01255 7.84415 4.04591V0.793696C8.09762 0.830121 8.42088 0.994994 8.66131 1.20204C9.38415 1.82511 9.78142 2.64986 10.1177 3.53749ZM7.15468 10.9733V14.2469C6.95298 14.153 6.76278 14.0828 6.59137 13.9809C6.22593 13.7634 5.94715 13.4506 5.70442 13.1066C5.35317 12.609 5.09433 12.0641 4.88687 11.4805C5.61737 11.1776 6.36551 11.0105 7.1543 10.9733H7.15468ZM10.138 11.4924C9.9302 11.9184 9.74805 12.3386 9.52526 12.7363C9.24917 13.2286 8.9029 13.6718 8.41245 13.9743C8.24027 14.0805 8.04624 14.1511 7.84377 14.2466V10.9736C8.62949 11.0105 9.37456 11.1776 10.138 11.4928V11.4924ZM4.26221 3.28366C3.82583 2.97999 3.40785 2.68935 2.98374 2.39411C3.57543 1.79789 5.15491 0.947066 5.61852 0.967387C4.98964 1.6242 4.59467 2.41214 4.26221 3.28404V3.28366ZM12.0136 2.39488C11.5848 2.69242 11.1684 2.98114 10.7332 3.28328C10.4034 2.40868 10.0019 1.62074 9.36421 0.950517C10.0426 1.04829 11.4211 1.79789 12.0136 2.39526V2.39488ZM12.0116 12.6254C11.2129 13.3114 10.3608 13.783 9.39297 14.0453C10.0015 13.3816 10.3969 12.5986 10.7293 11.7359C11.1638 12.0373 11.576 12.3233 12.0116 12.6258V12.6254ZM4.24304 11.7485C4.45164 12.178 4.62267 12.5883 4.84393 12.9686C5.06403 13.3467 5.33438 13.6956 5.58171 14.0552C4.63072 13.7792 3.77253 13.3099 2.98451 12.6205C3.42204 12.3172 3.83465 12.0315 4.24304 11.7485Z" fill="white"/>
</svg>