<svg xmlns="http://www.w3.org/2000/svg" width="45" height="45" viewBox="0 0 45 45" fill="none">
  <path d="M22.5 42C33.2693 42 42 33.2693 42 22.5C42 11.7307 33.2693 3 22.5 3M22.5 42C11.7307 42 3 33.2693 3 22.5C3 11.7307 11.7307 3 22.5 3M22.5 42C27.8182 42 29.5909 33.1364 29.5909 22.5C29.5909 11.8636 27.8182 3 22.5 3M22.5 42C17.1818 42 15.4091 33.1364 15.4091 22.5C15.4091 11.8636 17.1818 3 22.5 3M4.77273 29.5909H40.2273M4.77273 15.4091H40.2273" stroke="#000000" stroke-opacity="0.79" stroke-width="4.5"/>
</svg>