<svg width="61" height="61" viewBox="0 0 61 61" fill="none" xmlns="http://www.w3.org/2000/svg">
<circle cx="30.6035" cy="30.2314" r="30.2314" fill="#00acc1"/>
<path d="M23.6788 33.9556C23.5517 33.9556 23.4426 33.9556 23.3334 33.9556C22.4987 33.9556 21.6639 33.9523 20.8291 33.9564C20.1661 33.9596 19.7866 34.3374 19.7817 34.9908C19.7785 35.4164 19.7785 35.8421 19.7817 36.2677C19.7866 36.9008 20.1751 37.3005 20.8063 37.3021C23.0459 37.3062 25.2848 37.307 27.5245 37.3021C28.1304 37.3005 28.5172 36.9146 28.5286 36.3155C28.5368 35.8696 28.5343 35.4237 28.5295 34.9779C28.5221 34.3293 28.1556 33.9613 27.5065 33.9572C26.662 33.9523 25.8166 33.9556 24.9721 33.9556C24.8637 33.9556 24.7546 33.9556 24.639 33.9556V32.9309C24.7448 32.9252 24.8255 32.9179 24.9061 32.9179C25.771 32.9171 26.6367 32.9228 27.5017 32.9155C28.1499 32.9098 28.5213 32.5345 28.5295 31.8916C28.5352 31.466 28.5335 31.0404 28.5295 30.6148C28.5238 29.9338 28.1581 29.5714 27.4675 29.5682C26.6433 29.5641 25.8182 29.5673 24.9941 29.5673C24.8751 29.5673 24.7562 29.5673 24.6284 29.5673V28.5256C24.753 28.5256 24.8621 28.5256 24.9712 28.5256C25.8264 28.5256 26.6815 28.5329 27.5367 28.5224C28.1524 28.5143 28.5189 28.1405 28.5286 27.5301C28.536 27.0745 28.5368 26.6181 28.5286 26.1625C28.5181 25.5715 28.1467 25.1815 27.5554 25.1799C25.2954 25.1718 23.0362 25.1718 20.7762 25.1799C20.1767 25.1815 19.7907 25.5853 19.7834 26.1811C19.7777 26.6067 19.7809 27.0323 19.7826 27.4579C19.7858 28.1486 20.1596 28.5224 20.8617 28.5256C21.6859 28.5297 22.5109 28.5264 23.3351 28.5264C23.445 28.5264 23.5541 28.5264 23.6755 28.5264V29.5682H23.3229C22.519 29.5682 21.7144 29.5673 20.9105 29.5682C20.1458 29.5698 19.7842 29.9265 19.7826 30.678C19.7826 31.0631 19.7809 31.4481 19.7826 31.8332C19.785 32.5393 20.1629 32.9147 20.8804 32.9179C21.7046 32.9212 22.5296 32.9179 23.3538 32.9179C23.4613 32.9179 23.568 32.9179 23.6796 32.9179V33.9564L23.6788 33.9556Z" fill="white"/>
<path d="M16.3564 18.951C16.4371 18.7564 16.4998 18.5521 16.6024 18.3705C16.955 17.7487 17.5032 17.4277 18.2141 17.3774C18.3151 17.3701 18.4178 17.3742 18.5196 17.3742C25.8681 17.3742 33.2174 17.3742 40.566 17.3742C41.9635 17.3742 42.7381 18.1443 42.7381 19.5363C42.7381 23.4268 42.7381 27.318 42.7381 31.2085C42.7381 31.2693 42.7397 31.3301 42.7381 31.3909C42.7283 31.7209 42.5556 31.9268 42.2852 31.9325C42.0002 31.9382 41.8226 31.733 41.8226 31.3788C41.821 28.9775 41.8218 26.5763 41.8218 24.175C41.8218 23.5273 41.8218 22.8804 41.8218 22.2083H17.2727C17.2727 22.3242 17.2727 22.432 17.2727 22.5407C17.2727 28.0623 17.2727 33.5847 17.2727 39.1062C17.2727 39.8983 17.6587 40.2874 18.4471 40.2874C25.8469 40.2874 33.2468 40.2874 40.6458 40.2874C41.3601 40.2874 41.7371 39.9648 41.8218 39.2862C41.8601 38.9798 42.0482 38.8079 42.3186 38.8314C42.5833 38.8549 42.7446 39.0641 42.734 39.3705C42.7006 40.3344 41.8943 41.1386 40.9023 41.1962C40.7802 41.2035 40.658 41.2002 40.5359 41.2002C33.2785 41.2002 26.0212 41.2002 18.7647 41.2002C17.3338 41.2002 16.8932 40.9116 16.3564 39.6243C16.3564 32.7326 16.3564 25.8418 16.3564 18.951ZM41.8218 19.5209C41.8218 18.6526 41.4521 18.287 40.5749 18.287C33.2174 18.287 25.8608 18.287 18.5033 18.287C18.412 18.287 18.32 18.2838 18.2288 18.2902C17.7239 18.3275 17.3012 18.7061 17.2833 19.199C17.258 19.8751 17.2767 20.5529 17.2767 21.2468H41.8218" fill="white"/>
<path d="M47.6304 39.5639C47.584 39.6742 47.5408 39.786 47.4895 39.8939C47.0636 40.7856 45.9128 40.9923 45.1822 40.2879C44.3271 39.4634 43.4948 38.6154 42.6527 37.778C41.7315 36.8611 40.8161 35.9394 39.8877 35.0298C39.4218 34.5734 39.2655 34.0521 39.4528 33.4255C39.474 33.355 39.465 33.2398 39.4202 33.1904C39.1417 32.8832 38.8485 32.5889 38.5471 32.2776C37.2587 33.2634 35.8555 33.6241 34.3016 33.2642C33.1035 32.9869 32.1482 32.3319 31.4397 31.3307C30.0372 29.3494 30.3288 26.6677 32.1214 25.0002C33.8789 23.365 36.6015 23.2848 38.4934 24.8032C40.2835 26.2397 41.0987 29.18 39.171 31.6728C39.4715 31.9638 39.7729 32.2638 40.088 32.5483C40.1361 32.5913 40.2542 32.5881 40.3283 32.567C40.9318 32.3927 41.4465 32.5265 41.892 32.9707C43.6308 34.7064 45.3802 36.4323 47.1075 38.1785C47.3331 38.4071 47.4586 38.7338 47.6304 39.0159V39.5631V39.5639ZM39.3738 28.5687C39.3819 26.418 37.6089 24.6378 35.4409 24.6224C33.2705 24.6062 31.4714 26.3913 31.4731 28.5598C31.4747 30.7178 33.251 32.4875 35.4165 32.49C37.5804 32.4924 39.3656 30.7227 39.3738 28.5687ZM41.7666 35.5932C41.8024 35.633 41.835 35.6719 41.8708 35.7067C43.156 36.9876 44.4419 38.2677 45.7287 39.5477C45.7931 39.6117 45.8582 39.6798 45.9364 39.7244C46.1563 39.8501 46.3713 39.8225 46.5513 39.6474C46.7305 39.4739 46.7704 39.2615 46.6474 39.0386C46.5993 38.9519 46.5269 38.8765 46.456 38.8051C45.1928 37.5453 43.9289 36.2864 42.6632 35.0282C42.607 34.9723 42.5435 34.9236 42.4767 34.8652C42.2414 35.1068 42.0158 35.3379 41.7682 35.5924L41.7666 35.5932ZM41.7999 34.1664C41.5752 33.9541 41.3406 33.693 41.0653 33.4847C40.8601 33.329 40.619 33.3793 40.4317 33.5674C40.2542 33.7457 40.2314 34.0311 40.4024 34.2281C40.6117 34.4696 40.8463 34.6901 41.0784 34.9277C41.3243 34.6683 41.545 34.4348 41.7999 34.1656V34.1664Z" fill="white"/>
<path d="M23.6786 33.9561V32.9176C23.567 32.9176 23.4595 32.9176 23.3528 32.9176C22.5286 32.9176 21.7036 32.92 20.8794 32.9176C20.1619 32.9152 19.784 32.5398 19.7816 31.8329C19.7799 31.4478 19.7808 31.0628 19.7816 30.6777C19.7832 29.9262 20.1448 29.5695 20.9096 29.5679C21.7134 29.5662 22.518 29.5679 23.3219 29.5679H23.6745V28.5261C23.5532 28.5261 23.444 28.5261 23.3341 28.5261C22.5099 28.5261 21.6849 28.5294 20.8607 28.5253C20.1595 28.5221 19.7848 28.1483 19.7816 27.4576C19.7799 27.032 19.7767 26.6064 19.7824 26.1808C19.7897 25.5841 20.1758 25.1812 20.7752 25.1796C23.0352 25.1723 25.2944 25.1715 27.5544 25.1796C28.1457 25.182 28.5171 25.5712 28.5277 26.1622C28.5358 26.6178 28.5358 27.0742 28.5277 27.5298C28.5179 28.1402 28.1514 28.5148 27.5357 28.5221C26.6806 28.5326 25.8254 28.5253 24.9703 28.5253C24.8611 28.5253 24.752 28.5253 24.6274 28.5253V29.567C24.7553 29.567 24.8742 29.567 24.9931 29.567C25.8173 29.567 26.6423 29.5646 27.4665 29.5679C28.1571 29.5711 28.522 29.9327 28.5285 30.6145C28.5326 31.0401 28.5334 31.4657 28.5285 31.8913C28.5203 32.5342 28.149 32.9095 27.5007 32.9152C26.6358 32.9233 25.77 32.9168 24.9051 32.9176C24.8245 32.9176 24.7439 32.9257 24.638 32.9306V33.9553C24.7536 33.9553 24.8628 33.9553 24.9711 33.9553C25.8156 33.9553 26.661 33.9512 27.5056 33.9569C28.1547 33.961 28.5212 34.329 28.5285 34.9776C28.5334 35.4234 28.5358 35.8693 28.5277 36.3152C28.5171 36.9135 28.1302 37.3002 27.5235 37.3018C25.2838 37.3067 23.045 37.3067 20.8053 37.3018C20.1741 37.3002 19.7865 36.9005 19.7808 36.2674C19.7775 35.8418 19.7775 35.4161 19.7808 34.9905C19.7857 34.3371 20.166 33.9593 20.8281 33.9561C21.6629 33.952 22.4977 33.9553 23.3325 33.9553C23.4416 33.9553 23.5507 33.9553 23.6778 33.9553L23.6786 33.9561ZM27.5984 34.8933H20.7174V36.3719H27.5984V34.8933ZM20.71 31.9861H27.5895V30.5034H20.7108V31.9861H20.71Z" fill="white"/>
<path d="M32.4814 19.324C35.0053 19.324 37.5292 19.324 40.0539 19.324C40.1452 19.324 40.238 19.3184 40.3284 19.3273C40.5898 19.354 40.7763 19.5454 40.7771 19.7805C40.7788 20.031 40.5858 20.2166 40.3023 20.2336C40.2111 20.2393 40.1191 20.2361 40.0279 20.2361C35.0004 20.2361 29.9722 20.2361 24.9448 20.2361C24.8535 20.2361 24.7615 20.2393 24.6703 20.2344C24.3861 20.2182 24.193 20.0358 24.1914 19.7853C24.1898 19.5381 24.3844 19.3476 24.6654 19.3265C24.7566 19.3192 24.8487 19.324 24.9399 19.324C27.454 19.324 29.9673 19.324 32.4814 19.324Z" fill="white"/>
<path d="M19.2284 19.822C19.2081 20.0661 18.9988 20.2436 18.7495 20.2298C18.4954 20.216 18.2943 19.9858 18.3195 19.7385C18.344 19.4994 18.5647 19.3097 18.8025 19.3251C19.0574 19.3421 19.2504 19.5659 19.2284 19.8212V19.822Z" fill="white"/>
<path d="M20.7364 19.3262C20.9905 19.3302 21.1949 19.5483 21.1835 19.8037C21.1729 20.0485 20.9717 20.2358 20.7233 20.2325C20.4676 20.2285 20.2583 20.0104 20.2721 19.7607C20.2852 19.5207 20.4969 19.3229 20.7364 19.327V19.3262Z" fill="white"/>
<path d="M23.1444 19.7672C23.1517 20.0169 22.9701 20.2163 22.7225 20.2309C22.4643 20.2455 22.2436 20.0485 22.2346 19.7956C22.2257 19.5483 22.4439 19.3254 22.694 19.3262C22.9359 19.3262 23.1378 19.524 23.1444 19.768V19.7672Z" fill="white"/>
<path d="M35.3213 27.5633C35.5061 27.6274 35.7293 27.6492 35.8637 27.7684C35.9622 27.856 36.0005 28.0846 35.9687 28.2297C35.8563 28.7526 35.7057 29.2674 35.5623 29.7838C35.52 29.937 35.5061 30.0408 35.6617 30.168C35.7692 30.2556 35.8498 30.4883 35.8083 30.6123C35.7627 30.7517 35.568 30.8442 35.4328 30.9504C35.406 30.9714 35.3538 30.9601 35.3131 30.9625C34.6143 31.0136 34.2658 30.832 34.5443 30.0351C34.6909 29.6168 34.7862 29.1798 34.8888 28.7469C34.9092 28.661 34.8888 28.5151 34.831 28.4697C34.6355 28.3172 34.5614 28.1357 34.638 27.9111C34.7178 27.676 34.9189 27.6095 35.1502 27.6111C35.2007 27.6111 35.252 27.6111 35.3025 27.6111C35.3082 27.5949 35.3139 27.5787 35.3196 27.5625L35.3213 27.5633Z" fill="white"/>
<path d="M36.3992 26.597C36.4041 26.8491 36.2241 27.0412 35.9733 27.0526C35.7151 27.0639 35.496 26.8661 35.4903 26.6148C35.4846 26.3668 35.7029 26.1503 35.9546 26.1544C36.2038 26.1584 36.3944 26.3489 36.3992 26.597Z" fill="white"/>
</svg>
