<svg xmlns="http://www.w3.org/2000/svg" width="19" height="28" viewBox="0 0 19 28" fill="none">
  <path d="M8.79521 0C9.26308 0 9.73096 0 10.1988 0C10.589 0.0597917 10.982 0.104271 11.3685 0.181562C15.6708 1.04927 18.9056 4.97656 18.9977 9.42594C19.0366 11.2933 18.5745 13.0207 17.6891 14.6533C15.4952 18.6958 13.3113 22.7449 11.1403 26.7998C10.8229 27.3919 10.4299 27.8403 9.76767 28H9.22781C8.66133 27.8483 8.246 27.5217 7.96024 26.9901C5.7238 22.8258 3.47729 18.6667 1.23293 14.5068C0.185616 12.5665 -0.19804 10.508 0.0956407 8.31104C0.598785 4.54781 3.40027 1.29792 7.02521 0.333958C7.60465 0.180104 8.20497 0.109375 8.79593 0H8.79521ZM9.50566 4.8125C7.36784 4.80958 5.61799 6.5676 5.61007 8.72667C5.60215 10.9054 7.34408 12.6839 9.48766 12.6868C11.6248 12.6897 13.3753 10.9309 13.3833 8.77187C13.3919 6.59385 11.65 4.81542 9.50566 4.8125Z" fill="white"/>
</svg>