<svg xmlns="http://www.w3.org/2000/svg" width="15" height="15" viewBox="0 0 15 15" fill="none">
  <path d="M13.3333 0H1.66667C0.741667 0 0 0.741667 0 1.66667V5H1.66667V1.66667H13.3333V13.3333H1.66667V10H0V13.3333C0 13.7754 0.175595 14.1993 0.488155 14.5118C0.800716 14.8244 1.22464 15 1.66667 15H13.3333C13.7754 15 14.1993 14.8244 14.5118 14.5118C14.8244 14.1993 15 13.7754 15 13.3333V1.66667C15 1.22464 14.8244 0.800716 14.5118 0.488155C14.1993 0.175595 13.7754 0 13.3333 0ZM5.9 10.4833L7.08333 11.6667L11.25 7.5L7.08333 3.33333L5.9 4.50833L8.05833 6.66667H0V8.33333H8.05833L5.9 10.4833Z" fill="#696969"/>
</svg>