<svg xmlns="http://www.w3.org/2000/svg" width="27" height="24" viewBox="0 0 27 24" fill="none">
<path d="M7.26936 12C7.26936 11.7107 7.37877 11.4332 7.57352 11.2286C7.76828 11.024 8.03242 10.9091 8.30784 10.9091H17.6542V3.81818C17.6542 1.63636 15.461 0 13.5002 0H3.63468C2.67102 0.00108288 1.74712 0.403702 1.06571 1.11952C0.3843 1.83533 0.00103084 2.80587 0 3.81818V20.1818C0.00103084 21.1941 0.3843 22.1647 1.06571 22.8805C1.74712 23.5963 2.67102 23.9989 3.63468 24H14.0195C14.9831 23.9989 15.907 23.5963 16.5884 22.8805C17.2699 22.1647 17.6531 21.1941 17.6542 20.1818V13.0909H8.30784C8.03242 13.0909 7.76828 12.976 7.57352 12.7714C7.37877 12.5668 7.26936 12.2893 7.26936 12ZM26.6961 11.2289L21.5037 5.77432C21.3073 5.57837 21.0459 5.47074 20.7751 5.47438C20.5043 5.47803 20.2456 5.59265 20.0541 5.79382C19.8626 5.99498 19.7535 6.26677 19.75 6.55124C19.7465 6.83571 19.849 7.11034 20.0355 7.31659L23.4547 10.9091H17.6542V13.0909H23.4547L20.0355 16.6834C19.935 16.7837 19.8547 16.9041 19.7992 17.0375C19.7437 17.171 19.7142 17.3147 19.7124 17.4603C19.7106 17.6059 19.7366 17.7504 19.7888 17.8853C19.8411 18.0202 19.9185 18.1427 20.0165 18.2457C20.1145 18.3486 20.2311 18.43 20.3595 18.4848C20.4879 18.5397 20.6255 18.567 20.7641 18.5651C20.9027 18.5632 21.0395 18.5323 21.1666 18.474C21.2936 18.4157 21.4082 18.3312 21.5037 18.2257L26.6961 12.7711C26.8907 12.5666 27 12.2892 27 12C27 11.7108 26.8907 11.4334 26.6961 11.2289Z" fill="#404040" fill-opacity="0.79"/>
</svg>