<svg width="60" height="53" viewBox="0 0 60 53" fill="none" xmlns="http://www.w3.org/2000/svg">
<g clip-path="url(#clip0_3675_1755)">
<path d="M59.1836 40.7187L56.3293 35.773L56.3316 35.7707C56.0719 35.3318 55.9202 34.8216 55.9202 34.2746C55.9202 33.7231 56.0742 33.2106 56.3385 32.7694L55.8697 32.5809L55.0423 33.5392L54.8102 33.1371C53.8841 31.5306 51.5652 31.5306 50.6391 33.1371L46.2634 40.7164C45.3372 42.3228 46.4955 44.3291 48.3478 44.3291H48.8672L48.4788 45.6643L48.8074 45.8137C49.313 44.9266 50.2668 44.3291 51.3607 44.3291C51.3768 44.3291 51.3906 44.3314 51.4066 44.3314V44.3291H57.0992C58.9515 44.3291 60.1097 42.3228 59.1836 40.7187Z" fill="#15CCA3"/>
<path d="M40.0149 0H18.6972C15.8245 0 13.1724 1.53287 11.7361 4.01947L1.07726 22.4805C-0.359086 24.9671 -0.359086 28.0306 1.07726 30.5195L11.7361 48.9805C13.1724 51.4671 15.8245 53 18.6972 53H40.0149C42.8876 53 45.5396 51.4671 46.976 48.9805L57.6348 30.5195C59.0711 28.0329 59.0711 24.9694 57.6348 22.4805L46.976 4.01947C45.5396 1.53287 42.8853 0 40.0149 0Z" fill="#15CCA3"/>
<path opacity="0.7" d="M40.7787 25.5319H19.2228L18.1309 25.9956V31.6215L28.3676 35.8078C28.39 35.8172 28.4143 35.8228 28.4367 35.8321C28.9191 36.0303 29.4464 36.1425 29.9998 36.1425C30.5533 36.1425 31.0805 36.0322 31.5629 35.8321C31.5853 35.8246 31.6096 35.819 31.6321 35.8097L41.8725 31.6215V25.9956L40.7787 25.5319Z" fill="white"/>
<path d="M47.7651 23.1984L31.6444 16.344C31.6388 16.3422 31.6332 16.3403 31.6276 16.3384C31.1284 16.1215 30.5787 16 29.9991 16C29.4195 16 28.8698 16.1215 28.3705 16.3384C28.3649 16.3403 28.3593 16.3422 28.3537 16.344L12.2349 23.1984C11.9189 23.333 11.9227 23.7799 12.2405 23.9089L28.3668 30.5034C28.3892 30.5127 28.4135 30.5183 28.436 30.5277C28.9184 30.7259 29.4456 30.8381 29.9991 30.8381C30.5525 30.8381 31.0798 30.7278 31.5621 30.5277C31.5846 30.5202 31.6089 30.5146 31.6313 30.5053L47.7595 23.9108C48.0773 23.7799 48.0811 23.3312 47.7651 23.1984Z" fill="white"/>
</g>
<defs>
<clipPath id="clip0_3675_1755">
<rect width="59.5084" height="53" fill="white"/>
</clipPath>
</defs>
</svg>
