<svg xmlns="http://www.w3.org/2000/svg" width="26" height="20" viewBox="0 0 26 20" fill="none">
<path d="M26 4.20466V15.9936C25.9838 16.0489 25.9614 16.1035 25.9533 16.1601C25.6201 18.3486 23.7249 19.989 21.4756 19.993C15.8245 20.003 10.1741 20.0017 4.52303 19.993C2.58652 19.9903 0.868722 18.7596 0.247144 16.9553C0.139484 16.643 0.0812521 16.3146 0 15.9936C0 11.9969 0 8.0009 0 4.00419C0.0142191 3.96557 0.0352083 3.92894 0.0413022 3.88897C0.408968 1.56794 2.23782 0.00549455 4.61445 0.00349653C10.1721 -0.00116551 15.7304 -0.00116551 21.2881 0.00349653C23.4304 0.00549455 25.2024 1.32885 25.8009 3.35817C25.8829 3.63589 25.9343 3.92161 25.9993 4.204L26 4.20466ZM23.2659 4.49104C23.1501 4.58029 23.0776 4.63357 23.0086 4.69085C20.6746 6.6156 18.34 8.53836 16.0087 10.4664C14.1805 11.9783 11.6813 11.9856 9.84505 10.4724C7.82797 8.81076 5.81359 7.14641 3.79786 5.48339C3.40649 5.16038 3.01377 4.83937 2.59194 4.49304C2.58449 4.58895 2.57772 4.6369 2.57772 4.68419C2.57772 8.3299 2.57095 11.975 2.58856 15.6207C2.58991 15.9384 2.68809 16.2873 2.8445 16.5671C3.23587 17.2684 3.87844 17.5747 4.69434 17.5734C9.36499 17.5674 14.035 17.5707 18.7056 17.5707C19.552 17.5707 20.3977 17.5681 21.244 17.5707C21.9564 17.5734 22.5211 17.2897 22.9368 16.7256C23.2266 16.3326 23.2781 15.8904 23.2753 15.4069C23.2577 11.8864 23.2659 8.36587 23.2659 4.84469V4.49038V4.49104ZM21.5833 2.57495H4.2935C4.46277 2.7168 4.59616 2.83003 4.7309 2.94125C7.01883 4.82804 9.30676 6.7155 11.5967 8.6003C11.9915 8.92531 12.4451 9.10513 12.9665 9.11179C13.6043 9.11979 14.1209 8.85005 14.5908 8.45311C16.3249 6.99123 18.063 5.53401 19.7998 4.07479C20.3828 3.58461 20.9658 3.09443 21.5833 2.57428V2.57495Z" fill="white"/>
</svg>