<svg xmlns="http://www.w3.org/2000/svg" width="39" height="41" viewBox="0 0 39 41" fill="none">
  <path d="M3.9 3.58962e-06H35.1C36.1725 3.58962e-06 37.0909 0.414404 37.8553 1.2432C38.6197 2.072 39.0013 3.06713 39 4.22858V27.4857C39 28.6486 38.6178 29.6444 37.8534 30.4732C37.089 31.302 36.1712 31.7157 35.1 31.7143H27.3V38.85C27.3 39.6605 26.9912 40.2687 26.3737 40.6746C25.7562 41.0806 25.1225 41.1067 24.4725 40.7529L20.3775 38.5329C20.1175 38.3567 19.825 38.2686 19.5 38.2686C19.175 38.2686 18.8825 38.3567 18.6225 38.5329L14.5275 40.7529C13.8775 41.1053 13.2438 41.0792 12.6263 40.6746C12.0088 40.2701 11.7 39.6619 11.7 38.85V31.7143H3.9C2.8275 31.7143 1.90905 31.2999 1.14465 30.4711C0.380253 29.6423 -0.00129669 28.6472 3.3107e-06 27.4857V4.22858C3.3107e-06 3.06572 0.382203 2.06989 1.1466 1.24109C1.911 0.412289 2.8288 -0.00140593 3.9 3.58962e-06ZM3.9 23.2572H35.1V16.9143H3.9V23.2572Z" fill="#404040" fill-opacity="0.79"/>
</svg>