<svg xmlns="http://www.w3.org/2000/svg" width="27" height="28" viewBox="0 0 27 28" fill="currentColor">
<path d="M18.0312 25.0526C18.0315 25.7962 17.7436 26.5124 17.2254 27.0576C16.7072 27.6029 15.997 27.9369 15.237 27.9926L15.0105 28H11.9898C11.2277 28.0002 10.4936 27.7194 9.93483 27.2138C9.37603 26.7082 9.03374 26.0152 8.97658 25.2737L8.96903 25.0526H18.0312ZM13.5001 1.40599e-09C16.2414 -4.41295e-05 18.8755 1.03879 20.8469 2.89737C22.8182 4.75596 23.9726 7.28897 24.0666 9.96211L24.0727 10.3158V15.8627L26.8245 21.2328C26.9446 21.4672 27.0047 21.7264 26.9997 21.9883C26.9947 22.2503 26.9246 22.5071 26.7956 22.7369C26.6666 22.9666 26.4824 23.1624 26.2589 23.3075C26.0353 23.4527 25.7791 23.5428 25.512 23.5701L25.3383 23.5789H1.66189C1.39329 23.579 1.12868 23.5156 0.890731 23.394C0.652779 23.2724 0.448584 23.0964 0.295642 22.8809C0.1427 22.6655 0.0455714 22.4171 0.0125804 22.157C-0.0204107 21.8969 0.0117192 21.6329 0.106216 21.3876L0.175693 21.2328L2.92758 15.8627V10.3158C2.92758 7.57987 4.04146 4.95601 6.0242 3.02142C8.00694 1.08684 10.6961 1.406e-09 13.5001 1.40599e-09Z" fill="currentColor"/>
</svg>