<svg xmlns="http://www.w3.org/2000/svg" width="23" height="23" viewBox="0 0 23 23" fill="none">
  <path d="M17.3542 22.9989C16.7923 22.8779 16.2231 22.7845 15.6708 22.6304C14.5318 22.3131 13.4712 21.8034 12.4511 21.215C9.55718 19.5465 7.08422 17.3739 4.88968 14.8744C3.4661 13.2526 2.2223 11.5058 1.26253 9.5684C0.671911 8.37635 0.207529 7.13872 0.0486023 5.80884C-0.0511498 4.974 -0.0240984 4.14423 0.386745 3.38028C0.515803 3.13951 0.684309 2.90999 0.874796 2.71422C1.54319 2.02621 2.23582 1.36183 2.90647 0.676637C3.83749 -0.274084 5.28249 -0.176199 6.16166 0.678324C7.20934 1.69711 8.23954 2.73334 9.26581 3.77407C10.1698 4.69048 10.1771 6.06424 9.27933 6.9002C9.08772 7.07853 8.842 7.22029 8.59685 7.31705C7.96959 7.56401 7.47422 7.9398 7.20145 8.57043C7.01941 8.99066 6.99518 9.41932 7.11353 9.86318C7.44773 11.1121 8.15839 12.1398 9.0122 13.0793C9.90095 14.057 10.9069 14.8907 12.104 15.4724C12.6315 15.7284 13.1742 15.9562 13.7828 15.8769C14.6079 15.7695 15.2363 15.3723 15.5626 14.587C15.7643 14.1009 16.0027 13.6559 16.4666 13.3657C17.3356 12.8228 18.4069 12.9212 19.174 13.6672C20.2538 14.7169 21.3229 15.779 22.3722 16.8591C23.2322 17.744 23.2001 19.1555 22.3283 20.041C21.6396 20.7402 20.9385 21.4282 20.2453 22.123C19.7533 22.6152 19.1492 22.865 18.4689 22.9572C18.4114 22.9651 18.3562 22.9854 18.2999 23H17.3547L17.3542 22.9989Z" fill="white"/>
</svg>