<svg xmlns="http://www.w3.org/2000/svg" width="21" height="21" viewBox="0 0 21 21" fill="none">
<path fill-rule="evenodd" clip-rule="evenodd" d="M10.5 0C7.71523 0 5.04451 1.10625 3.07538 3.07538C1.10625 5.04451 0 7.71523 0 10.5C0 13.2848 1.10625 15.9555 3.07538 17.9246C5.04451 19.8938 7.71523 21 10.5 21C13.2848 21 15.9555 19.8938 17.9246 17.9246C19.8938 15.9555 21 13.2848 21 10.5C21 7.71523 19.8938 5.04451 17.9246 3.07538C15.9555 1.10625 13.2848 0 10.5 0ZM10.5 19.3846C8.14365 19.3846 5.88382 18.4486 4.21763 16.7824C2.55144 15.1162 1.61538 12.8563 1.61538 10.5C1.61538 8.14365 2.55144 5.88382 4.21763 4.21763C5.88382 2.55144 8.14365 1.61538 10.5 1.61538C12.8563 1.61538 15.1162 2.55144 16.7824 4.21763C18.4486 5.88382 19.3846 8.14365 19.3846 10.5C19.3846 12.8563 18.4486 15.1162 16.7824 16.7824C15.1162 18.4486 12.8563 19.3846 10.5 19.3846ZM13.0038 5.78308C12.7248 5.49247 12.3895 5.26164 12.0185 5.10462C11.5516 4.9177 11.0511 4.82969 10.5485 4.84615C10.0606 4.8373 9.57636 4.93085 9.12692 5.12077C8.74085 5.28231 8.4 5.53108 8.12538 5.84769C7.85787 6.13866 7.64939 6.4788 7.51154 6.84923C7.38337 7.22552 7.30199 7.61614 7.26923 8.01231H9.25615C9.26531 7.75592 9.34696 7.50739 9.49163 7.29552C9.6363 7.08366 9.83807 6.91715 10.0735 6.81531C10.2296 6.75382 10.3971 6.72682 10.5646 6.73615C10.7091 6.71319 10.8563 6.71319 11.0008 6.73615C11.1335 6.78635 11.2545 6.86333 11.3562 6.96231C11.4684 7.05942 11.5568 7.18101 11.6146 7.31769C11.6808 7.47057 11.7138 7.63574 11.7115 7.80231C11.7115 8.08177 11.6518 8.35638 11.5338 8.61C11.4165 8.87313 11.2702 9.12236 11.0977 9.35308L10.5323 10.0315C10.3385 10.2415 10.1446 10.4677 9.96692 10.6938C9.79463 10.919 9.64832 11.1628 9.53077 11.4208C9.4187 11.675 9.36357 11.9507 9.36923 12.2285V13.2946H11.3077V12.5031C11.3132 12.2662 11.374 12.0338 11.4854 11.8246C11.6181 11.5921 11.7694 11.3706 11.9377 11.1623L12.5192 10.4515C12.7309 10.207 12.9253 9.94787 13.1008 9.67615C13.2864 9.39909 13.4383 9.10081 13.5531 8.78769C13.6709 8.45575 13.731 8.10608 13.7308 7.75385C13.7336 7.38686 13.6791 7.02169 13.5692 6.67154C13.4472 6.33798 13.2543 6.03485 13.0038 5.78308ZM9.36923 14.2638H11.2592V16.1538H9.36923V14.2638Z" fill="#00ACC1"/>
</svg>