<svg xmlns="http://www.w3.org/2000/svg" width="27" height="33" viewBox="0 0 27 33" fill="none">
<path d="M13.5 0L0 6V15C0 23.325 5.76 31.11 13.5 33C21.24 31.11 27 23.325 27 15V6L13.5 0ZM13.5 6C14.6935 6 15.8381 6.47411 16.682 7.31802C17.5259 8.16193 18 9.30653 18 10.5C18 11.6935 17.5259 12.8381 16.682 13.682C15.8381 14.5259 14.6935 15 13.5 15C12.3065 15 11.1619 14.5259 10.318 13.682C9.4741 12.8381 9 11.6935 9 10.5C9 9.30653 9.4741 8.16193 10.318 7.31802C11.1619 6.47411 12.3065 6 13.5 6ZM21.195 24C19.3776 26.782 16.6617 28.8573 13.5 29.88C10.3383 28.8573 7.62243 26.782 5.805 24C5.295 23.25 4.86 22.5 4.5 21.705C4.5 19.23 8.565 17.205 13.5 17.205C18.435 17.205 22.5 19.185 22.5 21.705C22.14 22.5 21.705 23.25 21.195 24Z" fill="currentColor"/>
</svg>