<svg xmlns="http://www.w3.org/2000/svg" width="17" height="17" viewBox="0 0 17 17" fill="none">
<path d="M11.7377 13.024C10.2756 14.1589 8.43603 14.694 6.59337 14.5203C4.75071 14.3466 3.0435 13.4772 1.81924 12.089C0.594977 10.7009 -0.0543033 8.89829 0.00356021 7.04826C0.0614237 5.19822 0.822082 3.43976 2.1307 2.13083C3.43954 0.822134 5.19789 0.0614276 7.04781 0.00356043C8.89773 -0.0543068 10.7002 0.595015 12.0882 1.81935C13.4763 3.04369 14.3457 4.75101 14.5194 6.59379C14.6931 8.43656 14.158 10.2763 13.0231 11.7384L16.7097 15.4253C16.8295 15.5364 16.917 15.6779 16.9631 15.8346C17.0092 15.9914 17.0122 16.1576 16.9717 16.3159C16.9312 16.4742 16.8488 16.6187 16.7331 16.7341C16.6175 16.8494 16.4728 16.9315 16.3144 16.9716C16.1563 17.0121 15.9902 17.0093 15.8336 16.9634C15.6769 16.9175 15.5355 16.8302 15.4243 16.7108L11.7377 13.024ZM12.7321 7.27542C12.7429 6.55213 12.6097 5.83391 12.3404 5.16255C12.0711 4.49119 11.671 3.88008 11.1634 3.36478C10.6557 2.84948 10.0507 2.44027 9.38345 2.16096C8.71621 1.88165 8.00011 1.73781 7.27678 1.73781C6.55345 1.73781 5.83735 1.88165 5.17011 2.16096C4.50288 2.44027 3.89785 2.84948 3.39021 3.36478C2.88256 3.88008 2.48245 4.49119 2.21313 5.16255C1.94381 5.83391 1.81068 6.55213 1.82146 7.27542C1.84282 8.70827 2.42698 10.0752 3.44772 11.0809C4.46847 12.0866 5.84387 12.6504 7.27678 12.6504C8.70969 12.6504 10.0851 12.0866 11.1058 11.0809C12.1266 10.0752 12.7107 8.70827 12.7321 7.27542Z" fill="#00ACC1"/>
</svg>