<svg xmlns="http://www.w3.org/2000/svg" width="16" height="12" viewBox="0 0 16 12" fill="none">
  <path d="M10.1818 7.5C8.24 7.5 4.36364 8.4975 4.36364 10.5V12H16V10.5C16 8.4975 12.1236 7.5 10.1818 7.5ZM3.63636 4.5V2.25H2.18182V4.5H0V6H2.18182V8.25H3.63636V6H5.81818V4.5M10.1818 6C10.9534 6 11.6933 5.68393 12.2389 5.12132C12.7844 4.55871 13.0909 3.79565 13.0909 3C13.0909 2.20435 12.7844 1.44129 12.2389 0.87868C11.6933 0.31607 10.9534 0 10.1818 0C9.41028 0 8.67034 0.31607 8.12478 0.87868C7.57922 1.44129 7.27273 2.20435 7.27273 3C7.27273 3.79565 7.57922 4.55871 8.12478 5.12132C8.67034 5.68393 9.41028 6 10.1818 6Z" fill="#696969"/>
</svg>