<svg width="43" height="43" viewBox="0 0 43 43" fill="none" xmlns="http://www.w3.org/2000/svg">
<path d="M21.0489 8.92705C21.3483 8.00574 22.6517 8.00574 22.9511 8.92705L25.1432 15.6738C25.2771 16.0858 25.661 16.3647 26.0943 16.3647H33.1882C34.1569 16.3647 34.5597 17.6044 33.776 18.1738L28.0369 22.3435C27.6864 22.5981 27.5397 23.0495 27.6736 23.4615L29.8657 30.2082C30.1651 31.1295 29.1106 31.8956 28.3269 31.3262L22.5878 27.1565C22.2373 26.9019 21.7627 26.9019 21.4122 27.1565L15.6731 31.3262C14.8894 31.8956 13.8349 31.1295 14.1343 30.2082L16.3264 23.4615C16.4603 23.0495 16.3136 22.5981 15.9631 22.3435L10.2241 18.1738C9.44034 17.6044 9.84311 16.3647 10.8118 16.3647H17.9057C18.339 16.3647 18.7229 16.0858 18.8568 15.6738L21.0489 8.92705Z" fill="white"/>
<circle cx="21.5" cy="21.5" r="21" stroke="white"/>
</svg>
