<svg width="64" height="64" viewBox="0 0 64 64" fill="none" xmlns="http://www.w3.org/2000/svg">
<circle cx="32" cy="32" r="32" fill="#00acc1"/>
<path d="M30.0979 16.8541C30.6966 15.0115 33.3034 15.0115 33.9021 16.8541L36.2658 24.1287C36.5335 24.9527 37.3014 25.5106 38.1679 25.5106H45.8168C47.7543 25.5106 48.5598 27.9899 46.9924 29.1287L40.8043 33.6246C40.1033 34.1339 39.81 35.0366 40.0777 35.8607L42.4414 43.1353C43.0401 44.9779 40.9311 46.5101 39.3637 45.3713L33.1756 40.8754C32.4746 40.3661 31.5254 40.3661 30.8244 40.8754L24.6363 45.3713C23.0689 46.5101 20.9599 44.9779 21.5586 43.1353L23.9223 35.8607C24.19 35.0366 23.8967 34.1339 23.1957 33.6246L17.0076 29.1287C15.4402 27.9899 16.2457 25.5106 18.1832 25.5106H25.8321C26.6986 25.5106 27.4665 24.9527 27.7342 24.1287L30.0979 16.8541Z" fill="#EAF5EF"/>
</svg>
