<svg xmlns="http://www.w3.org/2000/svg" width="73" height="17" viewBox="0 0 73 17" fill="none">
<path d="M6.82231 2.38294C6.96754 1.91319 7.63246 1.91319 7.77769 2.38294L8.83003 5.78664C8.89479 5.9961 9.08846 6.13895 9.30772 6.13895H12.764C13.2423 6.13895 13.4476 6.74607 13.0674 7.03635L10.2292 9.20343C10.0626 9.33064 9.99303 9.54826 10.0549 9.74852L11.1288 13.222C11.2726 13.687 10.7346 14.0625 10.3477 13.7671L7.60343 11.6717C7.42427 11.5349 7.17573 11.5349 6.99657 11.6717L4.25228 13.7671C3.86538 14.0625 3.32737 13.687 3.47115 13.222L4.54506 9.74853C4.60697 9.54826 4.5374 9.33064 4.3708 9.20343L1.5326 7.03635C1.15242 6.74607 1.35771 6.13895 1.83603 6.13895H5.29228C5.51154 6.13895 5.70521 5.9961 5.76997 5.78664L6.82231 2.38294Z" fill="#EAD14C"/>
<path d="M21.4219 2.38294C21.5672 1.91319 22.2321 1.91319 22.3773 2.38294L23.4296 5.78664C23.4944 5.9961 23.6881 6.13895 23.9073 6.13895H27.3636C27.8419 6.13895 28.0472 6.74607 27.667 7.03635L24.8288 9.20343C24.6622 9.33064 24.5926 9.54826 24.6546 9.74852L25.7285 13.222C25.8722 13.687 25.3342 14.0625 24.9473 13.7671L22.203 11.6717C22.0239 11.5349 21.7753 11.5349 21.5962 11.6717L18.8519 13.7671C18.465 14.0625 17.927 13.687 18.0708 13.222L19.1447 9.74853C19.2066 9.54826 19.137 9.33064 18.9704 9.20343L16.1322 7.03635C15.752 6.74607 15.9573 6.13895 16.4356 6.13895H19.8919C20.1111 6.13895 20.3048 5.9961 20.3696 5.78664L21.4219 2.38294Z" fill="#EAD14C"/>
<path d="M36.0225 2.38294C36.1677 1.91319 36.8327 1.91319 36.9779 2.38294L38.0302 5.78664C38.095 5.9961 38.2887 6.13895 38.5079 6.13895H41.9642C42.4425 6.13895 42.6478 6.74607 42.2676 7.03635L39.4294 9.20343C39.2628 9.33064 39.1932 9.54826 39.2551 9.74852L40.329 13.222C40.4728 13.687 39.9348 14.0625 39.5479 13.7671L36.8036 11.6717C36.6245 11.5349 36.3759 11.5349 36.1968 11.6717L33.4525 13.7671C33.0656 14.0625 32.5276 13.687 32.6714 13.222L33.7453 9.74853C33.8072 9.54826 33.7376 9.33064 33.571 9.20343L30.7328 7.03635C30.3526 6.74607 30.5579 6.13895 31.0362 6.13895H34.4925C34.7117 6.13895 34.9054 5.9961 34.9702 5.78664L36.0225 2.38294Z" fill="#EAD14C"/>
<path d="M50.6221 2.38294C50.7673 1.91319 51.4323 1.91319 51.5775 2.38294L52.6298 5.78664C52.6946 5.9961 52.8883 6.13895 53.1075 6.13895H56.5638C57.0421 6.13895 57.2474 6.74607 56.8672 7.03635L54.029 9.20343C53.8624 9.33064 53.7928 9.54826 53.8547 9.74852L54.9286 13.222C55.0724 13.687 54.5344 14.0625 54.1475 13.7671L51.4032 11.6717C51.2241 11.5349 50.9755 11.5349 50.7964 11.6717L48.0521 13.7671C47.6652 14.0625 47.1272 13.687 47.271 13.222L48.3449 9.74853C48.4068 9.54826 48.3372 9.33064 48.1706 9.20343L45.3324 7.03635C44.9522 6.74607 45.1575 6.13895 45.6358 6.13895H49.0921C49.3113 6.13895 49.505 5.9961 49.5698 5.78664L50.6221 2.38294Z" fill="#EAD14C"/>
<path d="M66.3073 11.2743L66.0038 11.6717L66.3073 11.2743C65.9489 11.0007 65.4518 11.0007 65.0935 11.2743L65.397 11.6717L65.0935 11.2743L62.3492 13.3697L63.4231 9.89622C63.547 9.49569 63.4078 9.06045 63.0746 8.80603L60.2364 6.63895H63.6927C64.1312 6.63895 64.5185 6.35326 64.6481 5.93433L65.7004 2.53063L66.7527 5.93433C66.8823 6.35326 67.2696 6.63895 67.7081 6.63895H71.1644L68.3262 8.80603C67.993 9.06045 67.8538 9.49569 67.9776 9.89622L69.0515 13.3697L66.3073 11.2743Z" stroke="#EAD14C"/>
</svg>