<svg xmlns="http://www.w3.org/2000/svg" width="30" height="35" viewBox="0 0 39 44" fill="none">
  <path d="M5.2 0C3.82087 0 2.49823 0.545376 1.52304 1.51615C0.547855 2.48693 0 3.80359 0 5.17647V36.2353C0 37.6082 0.547855 38.9248 1.52304 39.8956C2.49823 40.8664 3.82087 41.4118 5.2 41.4118H16.2682C15.606 40.6134 15.0332 39.7455 14.56 38.8235H5.2C4.51044 38.8235 3.84912 38.5508 3.36152 38.0655C2.87393 37.5801 2.6 36.9217 2.6 36.2353H13.5382C12.8428 33.7971 12.814 31.2182 13.4548 28.7652C14.0955 26.3121 15.3826 24.0739 17.1829 22.2817C18.9833 20.4894 21.2317 19.2082 23.6959 18.5704C26.1601 17.9325 28.7507 17.9612 31.2 18.6534V5.17647C31.2 3.80359 30.6521 2.48693 29.677 1.51615C28.7018 0.545376 27.3791 0 26 0H5.2ZM7.15 6.47059H24.05C24.5672 6.47059 25.0632 6.6751 25.4289 7.03915C25.7946 7.40319 26 7.89693 26 8.41177C26 8.9266 25.7946 9.42034 25.4289 9.78438C25.0632 10.1484 24.5672 10.3529 24.05 10.3529H7.15C6.63283 10.3529 6.13684 10.1484 5.77114 9.78438C5.40545 9.42034 5.2 8.9266 5.2 8.41177C5.2 7.89693 5.40545 7.40319 5.77114 7.03915C6.13684 6.6751 6.63283 6.47059 7.15 6.47059ZM39 32.3529C39 35.4419 37.7673 38.4044 35.5731 40.5887C33.379 42.7729 30.403 44 27.3 44C24.197 44 21.221 42.7729 19.0269 40.5887C16.8327 38.4044 15.6 35.4419 15.6 32.3529C15.6 29.264 16.8327 26.3015 19.0269 24.1172C21.221 21.933 24.197 20.7059 27.3 20.7059C30.403 20.7059 33.379 21.933 35.5731 24.1172C37.7673 26.3015 39 29.264 39 32.3529ZM26.052 27.2645C25.8834 27.1492 25.6875 27.0798 25.4837 27.063C25.2798 27.0462 25.0751 27.0826 24.8898 27.1687C24.7385 27.235 24.6016 27.3299 24.4868 27.4482C24.2446 27.6953 24.1093 28.027 24.1098 28.3722V36.3311C24.1082 36.5026 24.1407 36.6728 24.2054 36.8318C24.2701 36.9908 24.3657 37.1355 24.4868 37.2576C24.6055 37.3751 24.7436 37.4714 24.895 37.5424C25.1588 37.6627 25.4581 37.6811 25.7348 37.5941C25.8547 37.5548 25.9684 37.4991 26.0728 37.4285L32.0424 33.3727C32.224 33.2536 32.3704 33.0883 32.4662 32.8939C32.565 32.6981 32.6158 32.4818 32.6144 32.2627C32.6131 32.0436 32.5596 31.828 32.4584 31.6334C32.3567 31.4419 32.2072 31.2796 32.0242 31.1624L26.052 27.2645Z" fill="currentColor" />
</svg>