<svg xmlns="http://www.w3.org/2000/svg" width="16" height="18" viewBox="0 0 16 18" fill="none">
  <path fill-rule="evenodd" clip-rule="evenodd" d="M9.23025 1.86207H6.76852C6.6053 1.86207 6.44876 1.92746 6.33334 2.04386C6.21793 2.16027 6.15309 2.31814 6.15309 2.48276V3.10345H9.84568V2.48276C9.84568 2.31814 9.78084 2.16027 9.66543 2.04386C9.55001 1.92746 9.39347 1.86207 9.23025 1.86207ZM11.692 3.10345V2.48276C11.692 1.82429 11.4326 1.19279 10.971 0.727183C10.5093 0.261576 9.88314 0 9.23025 0H6.76852C6.11563 0 5.48948 0.261576 5.02782 0.727183C4.56615 1.19279 4.30679 1.82429 4.30679 2.48276V3.10345H0.923148C0.678314 3.10345 0.443507 3.20154 0.270384 3.37614C0.0972598 3.55074 0 3.78756 0 4.03448C0 4.28141 0.0972598 4.51822 0.270384 4.69282C0.443507 4.86743 0.678314 4.96552 0.923148 4.96552H1.30718L1.69736 14.431C1.73706 15.3912 2.14322 16.2987 2.83093 16.9638C3.51864 17.6289 4.43466 18.0002 5.38749 18H10.6125C11.5651 17.9999 12.4808 17.6285 13.1683 16.9634C13.8557 16.2983 14.2617 15.391 14.3014 14.431L14.6928 4.96552H15.0769C15.3217 4.96552 15.5565 4.86743 15.7296 4.69282C15.9027 4.51822 16 4.28141 16 4.03448C16 3.78756 15.9027 3.55074 15.7296 3.37614C15.5565 3.20154 15.3217 3.10345 15.0769 3.10345H11.692ZM12.8441 4.96552H3.1547L3.54243 14.3528C3.56212 14.833 3.76514 15.2869 4.10901 15.6196C4.45288 15.9523 4.91098 16.138 5.38749 16.1379H10.6125C11.0888 16.1377 11.5466 15.9518 11.8902 15.6192C12.2338 15.2865 12.4367 14.8328 12.4563 14.3528L12.8441 4.96552ZM5.22994 7.44828V13.6552C5.22994 13.9021 5.3272 14.1389 5.50032 14.3135C5.67345 14.4881 5.90825 14.5862 6.15309 14.5862C6.39792 14.5862 6.63273 14.4881 6.80585 14.3135C6.97898 14.1389 7.07624 13.9021 7.07624 13.6552V7.44828C7.07624 7.20135 6.97898 6.96454 6.80585 6.78993C6.63273 6.61533 6.39792 6.51724 6.15309 6.51724C5.90825 6.51724 5.67345 6.61533 5.50032 6.78993C5.3272 6.96454 5.22994 7.20135 5.22994 7.44828ZM9.84568 6.51724C10.0905 6.51724 10.3253 6.61533 10.4984 6.78993C10.6716 6.96454 10.7688 7.20135 10.7688 7.44828V13.6552C10.7688 13.9021 10.6716 14.1389 10.4984 14.3135C10.3253 14.4881 10.0905 14.5862 9.84568 14.5862C9.60085 14.5862 9.36604 14.4881 9.19292 14.3135C9.01979 14.1389 8.92253 13.9021 8.92253 13.6552V7.44828C8.92253 7.20135 9.01979 6.96454 9.19292 6.78993C9.36604 6.61533 9.60085 6.51724 9.84568 6.51724Z" fill="white"/>
</svg>